# Blender 3.6.2
# www.blender.org
mtllib Barrel.mtl
o Barrel
v 0.000000 0.000000 -0.415165
v 0.000000 1.200000 -0.415165
v 0.207583 0.000000 -0.359544
v 0.359544 1.200000 -0.207583
v 0.359544 0.000000 0.207583
v 0.207583 1.200000 0.359544
v -0.359544 0.000000 0.207583
v -0.289064 0.887485 0.500674
v -0.300000 0.710000 0.519615
v -0.300000 0.490000 0.519615
v -0.500674 0.312515 0.289064
v -0.600000 0.490000 -0.000000
v 0.000000 0.887485 -0.578129
v 0.000000 0.312515 -0.578129
v 0.300000 0.710000 -0.519615
v 0.300000 0.490000 -0.519615
v 0.519615 0.490000 -0.300000
v 0.578129 0.312515 -0.000000
v 0.600000 0.490000 -0.000000
v 0.500674 0.312515 0.289064
v 0.519615 0.490000 0.300000
v 0.000000 0.312515 0.578129
v -0.519615 0.710000 0.300000
v -0.500674 0.887485 0.289064
v -0.600000 0.710000 -0.000000
v -0.578129 0.887485 -0.000000
v -0.578129 0.312515 -0.000000
v -0.289064 0.887485 -0.500674
v -0.300000 0.490000 -0.519615
v 0.000000 0.490000 0.600000
v 0.300000 0.710000 0.519615
v 0.289064 0.887485 0.500674
v 0.500674 0.887485 0.289064
v 0.600000 0.710000 -0.000000
v 0.519615 0.710000 -0.300000
v 0.289064 0.312515 -0.500674
v 0.289064 0.887485 -0.500674
v 0.519615 0.710000 0.300000
v 0.300000 0.490000 0.519615
v -0.289064 0.312515 0.500674
v -0.519615 0.710000 -0.300000
v -0.519615 0.490000 -0.300000
v -0.300000 0.710000 -0.519615
v -0.289064 0.312515 -0.500674
v 0.500674 0.887485 -0.289064
v 0.500674 0.312515 -0.289064
v 0.289064 0.312515 0.500674
v 0.000000 0.887485 0.578129
v 0.000000 0.710000 0.600000
v -0.519615 0.490000 0.300000
v -0.500674 0.312515 -0.289064
v -0.500674 0.887485 -0.289064
v 0.000000 0.710000 -0.600000
v 0.000000 0.490000 -0.600000
v 0.577015 0.884636 -0.009344
v 0.571577 0.710000 0.330000
v 0.660000 0.710000 0.000000
v 0.330000 0.710000 0.571577
v 0.550741 0.312515 0.317971
v 0.571577 0.490000 0.330000
v 0.330000 0.490000 0.571577
v 0.000000 0.490000 0.660000
v -0.317971 0.312515 0.550741
v 0.000000 0.312515 0.635942
v -0.330000 0.710000 0.571577
v -0.317971 0.887485 0.550742
v -0.549557 0.875942 0.324947
v -0.635942 0.887485 0.000000
v -0.572028 0.712899 -0.323866
v -0.660000 0.710000 0.000000
v -0.635942 0.312515 0.000000
v -0.660000 0.490000 0.000000
v -0.571577 0.490000 -0.330000
v -0.330000 0.490000 -0.571577
v -0.317541 0.715650 -0.570757
v -0.317971 0.887485 -0.550742
v -0.317971 0.312515 -0.550741
v 0.571577 0.710000 -0.330000
v 0.553779 0.876291 -0.321804
v 0.629063 0.312515 -0.011358
v 0.525807 0.309361 -0.307961
v 0.660000 0.490000 0.000000
v 0.550742 0.887485 0.317971
v 0.317971 0.312515 0.550741
v 0.317971 0.887485 0.550742
v 0.000000 0.887485 0.635942
v 0.000000 0.710000 0.660000
v -0.571577 0.710000 0.330000
v -0.330000 0.490000 0.571577
v -0.571577 0.490000 0.330000
v -0.550741 0.312515 0.317971
v -0.550741 0.312515 -0.317971
v -0.550742 0.887485 -0.317971
v 0.000000 0.710000 -0.660000
v -0.012129 0.881985 -0.636740
v -0.018365 0.483781 -0.646796
v 0.000000 0.312515 -0.635942
v 0.571577 0.490000 -0.330000
v 0.635942 0.887485 0.000000
v 0.317334 0.321949 -0.548913
v 0.330000 0.490000 -0.571577
v 0.330000 0.710000 -0.571577
v 0.317971 0.887485 -0.550742
v 0.000000 0.000000 -0.500000
v 0.250000 0.000000 -0.433013
v -0.003438 1.190550 -0.506185
v 0.433013 0.000000 -0.250000
v 0.433013 1.200000 -0.250000
v 0.512817 1.186732 0.000014
v 0.433013 0.000000 0.250000
v 0.258260 0.003300 0.427061
v 0.250000 1.200000 0.433013
v -0.250000 0.000000 0.433013
v -0.250462 1.192874 0.438093
v -0.442159 -0.006588 0.245302
v -0.421605 1.208639 0.249872
v -0.488874 1.208426 -0.000125
v -0.434298 0.000000 -0.260175
v -0.433013 1.200000 -0.250000
v -0.249407 1.209559 -0.426494
v -0.415165 1.200000 0.000000
v -0.359544 1.200000 -0.207583
v -0.207583 1.200000 -0.359544
v 0.207583 1.154114 -0.359544
v 0.359544 0.000000 -0.207583
v 0.409841 1.200000 0.022007
v 0.207583 0.000000 0.359544
v -0.207583 0.000000 0.359544
v -0.207583 1.200000 0.359544
v -0.359544 1.200000 0.207583
v -0.359544 0.000000 -0.207583
v 0.000000 0.072889 -0.415165
v 0.207583 0.072889 -0.359544
v 0.000000 1.127111 -0.415165
v 0.359544 0.072889 -0.207583
v 0.359544 1.127111 -0.207583
v 0.415165 0.072889 0.000000
v 0.415165 1.127111 0.000000
v 0.359544 0.072889 0.207583
v 0.359544 1.127111 0.207583
v 0.207583 0.072889 0.359544
v 0.207583 1.127111 0.359544
v 0.000000 0.072889 0.415165
v 0.000000 1.127111 0.415165
v -0.207583 0.072889 0.359544
v -0.207583 1.127111 0.359544
v -0.359544 0.072889 0.207583
v -0.359544 1.127111 0.207583
v -0.415165 0.072889 0.000000
v -0.415165 1.127111 0.000000
v -0.359544 0.072889 -0.207583
v -0.359544 1.127111 -0.207583
v -0.207583 0.072889 -0.359544
v -0.207583 1.127111 -0.359544
v 0.272445 1.200000 -0.294681
v 0.118979 1.200000 -0.383285
v 0.162367 1.196732 -0.458314
v 0.314862 1.200000 -0.368151
v 0.260745 1.141045 -0.451623
v 0.455106 1.196327 0.180794
v 0.404163 1.200779 0.265949
v 0.447942 1.131046 0.258619
v 0.330694 1.200779 0.223531
v 0.378778 1.200000 0.136616
v 0.026282 1.200000 0.492958
v -0.026272 1.199253 0.493506
v 0.001385 1.155257 0.509017
v -0.026282 1.200000 0.408123
v 0.026282 1.200000 0.408123
v 0.001385 1.154472 0.417808
v -0.039445 0.000000 0.489431
v 0.039441 0.000504 0.488861
v 0.000000 0.038267 0.509567
v 0.039445 0.000000 0.404596
v -0.039445 0.000000 0.404596
v 0.000000 0.039445 0.415165
v -0.485587 0.000000 -0.057074
v -0.478660 0.000653 0.030751
v -0.513842 0.055370 -0.000000
v -0.391985 0.002185 0.030771
v -0.399872 0.000000 -0.057074
v -0.415165 0.057074 0.000000
v -0.221134 0.008860 -0.430453
v -0.278514 0.008806 -0.398448
v -0.257761 0.041398 -0.428390
v -0.230758 0.000000 -0.336368
v -0.173630 0.000000 -0.368641
v -0.207583 0.032505 -0.359544
v 0.394623 0.002429 -0.027512
v 0.397762 0.000000 0.064949
v 0.415165 0.062364 0.000000
v 0.493101 -0.002589 0.053301
v 0.488509 -0.000145 -0.038988
v 0.525613 0.057592 -0.009653
vn 0.7071 -0.0000 -0.7071
vn 0.9659 -0.0000 -0.2588
vn 0.9659 -0.0000 0.2588
vn 0.7071 -0.0000 0.7071
vn 0.2588 -0.0000 0.9659
vn -0.2588 -0.0000 0.9659
vn -0.7071 -0.0000 0.7071
vn -0.9659 -0.0000 0.2588
vn -0.9659 -0.0000 -0.2588
vn -0.7071 -0.0000 -0.7071
vn 0.6962 0.2308 -0.6797
vn 0.2588 -0.0000 -0.9659
vn -0.2663 0.2340 -0.9351
vn -0.0366 -0.9982 -0.0484
vn -0.6833 0.2387 -0.6900
vn 0.9673 0.1069 -0.2298
vn -0.9397 0.2473 -0.2363
vn -0.0000 -1.0000 -0.0000
vn -0.9327 0.2598 0.2503
vn -0.6828 -0.2279 0.6942
vn -0.6964 0.2406 0.6761
vn -0.2588 -0.0000 -0.9659
vn 0.2486 0.2352 0.9396
vn -0.0263 0.9988 0.0411
vn 0.6886 -0.2335 0.6865
vn 0.9414 0.2139 0.2610
vn -0.0027 1.0000 0.0027
vn 0.9376 -0.2203 0.2689
vn 0.9370 0.2223 -0.2694
vn 0.6873 -0.2347 -0.6873
vn 0.2516 -0.2347 -0.9389
vn 0.0677 0.9972 -0.0317
vn -0.0930 0.9947 0.0435
vn -0.0221 -0.9986 -0.0473
vn -0.0000 1.0000 -0.0000
vn 0.0043 0.9987 -0.0499
vn 0.0369 -0.9962 -0.0788
vn -0.0553 -0.9965 -0.0620
vn 0.0054 0.9980 -0.0622
vn -0.2464 -0.1090 -0.9630
vn -0.2671 0.1107 -0.9573
vn -0.7011 -0.1298 -0.7011
vn -0.6986 0.0951 -0.7091
vn -0.9578 -0.1298 -0.2566
vn -0.9577 0.1277 -0.2578
vn -0.9578 -0.1298 0.2566
vn -0.9571 0.1322 0.2578
vn -0.7011 -0.1298 0.7011
vn -0.6990 0.1224 0.7046
vn -0.2566 -0.1298 0.9578
vn -0.2566 0.1298 0.9578
vn 0.2566 -0.1298 0.9578
vn 0.2566 0.1298 0.9578
vn 0.7011 -0.1298 0.7011
vn 0.7011 0.1298 0.7011
vn 0.9577 -0.1556 0.2422
vn 0.9578 0.1298 0.2566
vn 0.9355 -0.2089 -0.2851
vn 0.9596 0.1229 -0.2532
vn 0.7130 -0.2054 -0.6704
vn 0.6983 0.1202 -0.7056
vn 0.2378 -0.0915 -0.9670
vn 0.2519 0.1383 -0.9578
vn -0.0234 -0.9997 -0.0110
vn -0.0052 0.9982 -0.0603
vn -0.0833 0.9948 0.0582
vn -0.0224 0.9997 -0.0105
vn 0.0380 -0.9973 -0.0630
vn -0.0042 0.9988 -0.0490
vn 0.0797 0.9953 -0.0556
vn -0.0350 -0.9993 0.0162
vn -0.0002 0.9971 -0.0764
vn -0.9683 0.0944 0.2311
vn 0.0774 0.9970 0.0066
vn -0.0126 -0.9999 0.0087
vn 0.6876 0.2472 0.6827
vn 0.0094 -0.9998 0.0194
vn -0.9656 0.0049 -0.2598
vn 0.2584 -0.2412 0.9354
vn -0.2421 0.2304 0.9425
vn -0.2516 -0.2347 0.9389
vn 0.2639 0.0020 -0.9645
vn 0.0368 -0.9992 -0.0179
vn 0.0324 0.9994 0.0156
vn -0.9428 -0.2402 0.2312
vn 0.1151 0.9929 -0.0314
vn -0.9419 -0.2290 -0.2457
vn 0.0584 0.9983 -0.0042
vn -0.6657 -0.2356 -0.7081
vn 0.0280 0.9979 0.0577
vn -0.2733 -0.2548 -0.9276
vn 0.0388 0.9992 -0.0104
vn 0.2454 0.2265 -0.9426
vn -0.0054 0.9999 0.0094
vn 0.9333 -0.2316 -0.2744
vn -0.9694 -0.0709 0.2349
vn -0.2656 0.0026 -0.9641
vn -0.0159 -0.9999 0.0030
vn -0.7214 -0.0670 -0.6893
vn -0.3956 0.8691 -0.2970
vn 0.4482 0.8770 0.1732
vn 0.4590 0.3640 -0.8104
vn -0.3499 0.7166 0.6034
vn 0.0945 0.9955 -0.0039
vn 0.8507 0.5257 -0.0002
vn -0.8759 0.4825 -0.0022
vn 0.7027 -0.7115 -0.0047
vn -0.7000 -0.7141 -0.0027
vn 0.0129 -0.9997 0.0207
vn 0.0066 -0.7111 0.7030
vn 0.0086 -0.4860 -0.8739
vn 0.0409 -0.9987 -0.0313
vn -0.6030 -0.7150 0.3537
vn 0.5015 -0.7244 -0.4730
vn -0.0205 -0.9983 -0.0548
vn -0.0983 -0.6991 -0.7082
vn 0.0747 -0.4632 0.8831
vt 0.916667 0.704167
vt 0.916667 0.795833
vt 0.833333 0.795833
vt 0.833333 0.704167
vt 0.833333 0.795833
vt 0.750000 0.795833
vt 0.750000 0.704167
vt 0.750000 0.704167
vt 0.750000 0.795833
vt 0.666667 0.795833
vt 0.666667 0.704167
vt 0.666667 0.795833
vt 0.583333 0.795833
vt 0.583333 0.704167
vt 0.583333 0.795833
vt 0.500000 0.795833
vt 0.500000 0.704167
vt 0.500000 0.795833
vt 0.416667 0.795833
vt 0.416667 0.704167
vt 0.416667 0.795833
vt 0.333333 0.795833
vt 0.333333 0.704167
vt 0.333333 0.795833
vt 0.250000 0.795833
vt 0.250000 0.704167
vt 0.250000 0.795833
vt 0.166667 0.795833
vt 0.166667 0.704167
vt 0.166667 0.795833
vt 0.083333 0.795833
vt 0.083333 0.704167
vt 0.916667 0.869786
vt 0.916667 0.964184
vt 0.887132 1.000000
vt 0.833333 1.000000
vt 0.833333 0.869786
vt 1.000000 0.704167
vt 1.000000 0.795833
vt 0.916667 0.795833
vt 0.083333 0.869786
vt 0.083333 1.000000
vt 0.000000 1.000000
vt 0.000000 0.869786
vt 0.750000 0.449279
vt 0.666658 0.426948
vt 0.645591 0.462024
vt 0.750000 0.490000
vt 0.166667 0.869786
vt 0.166667 1.000000
vt 0.083333 0.869786
vt 0.577419 0.150360
vt 0.558061 0.222605
vt 0.550721 0.250000
vt 0.250000 0.869786
vt 0.250000 1.000000
vt 0.166667 0.869786
vt 0.577419 0.349640
vt 0.558061 0.277395
vt 0.517054 0.276324
vt 0.542154 0.370000
vt 0.333333 0.869786
vt 0.333333 1.000000
vt 0.416667 0.500000
vt 0.416667 0.630214
vt 0.333333 0.630214
vt 0.333333 0.500000
vt 0.416667 0.869786
vt 0.416667 1.000000
vt 0.849640 0.077419
vt 0.768933 0.055794
vt 0.750000 0.050721
vt 0.583333 0.869786
vt 0.583333 1.000000
vt 0.508761 1.000000
vt 0.500000 0.989376
vt 0.500000 0.869786
vt 0.650360 0.077419
vt 0.731067 0.055794
vt 0.731067 0.015073
vt 0.630000 0.042154
vt 0.237384 0.054101
vt 0.150360 0.077419
vt 0.130000 0.042154
vt 0.237413 0.013373
vt 0.666667 0.500000
vt 0.666667 0.630214
vt 0.583333 0.630214
vt 0.583333 0.500000
vt 0.750000 0.869786
vt 0.750000 1.000000
vt 0.689737 1.000000
vt 0.666667 0.971269
vt 0.666667 0.869786
vt 0.397606 0.125385
vt 0.349640 0.077419
vt 0.370000 0.042154
vt 0.432871 0.105025
vt 0.729239 0.500000
vt 0.750000 0.525156
vt 0.750000 0.630214
vt 0.916667 0.500000
vt 0.916667 0.630214
vt 0.833333 0.630214
vt 0.833333 0.500000
vt 0.639236 0.411457
vt 0.650360 0.422581
vt 0.083333 0.795833
vt 0.000000 0.795833
vt 0.000000 0.704167
vt 1.000000 0.500000
vt 1.000000 0.630214
vt 0.416667 0.630214
vt 0.500000 0.630214
vt 1.000000 0.869786
vt 0.166667 0.630214
vt 0.250000 0.630214
vt 0.083333 0.630214
vt 0.000000 0.630214
vt 0.083333 0.630214
vt 0.333333 0.630214
vt 0.583333 0.630214
vt 0.833333 0.630214
vt 0.849640 0.422581
vt 0.870000 0.457846
vt 0.422581 0.349640
vt 0.380773 0.391447
vt 0.353832 0.424914
vt 0.922581 0.349640
vt 0.957846 0.370000
vt 0.250000 0.449279
vt 0.307110 0.433977
vt 0.328507 0.468964
vt 0.250000 0.490000
vt 0.941455 0.279201
vt 0.949279 0.250000
vt 0.449279 0.250000
vt 0.490000 0.250000
vt 0.457846 0.370000
vt 0.981848 0.280422
vt 0.642975 1.000000
vt 0.922581 0.150360
vt 0.957846 0.130000
vt 0.870000 0.042154
vt 0.422581 0.150360
vt 0.432791 0.188464
vt 0.500000 0.515945
vt 0.512727 0.500000
vt 0.491259 1.000000
vt 0.486852 0.500000
vt 0.500000 0.515944
vt 0.237384 0.054101
vt 0.250000 0.050721
vt 0.542154 0.130000
vt 0.077419 0.150360
vt 0.042154 0.130000
vt 0.250000 0.523071
vt 0.269382 0.500000
vt 0.050721 0.250000
vt 0.010000 0.250000
vt 0.231719 0.500000
vt 0.166667 0.500000
vt 0.077419 0.349640
vt 0.042154 0.370000
vt 0.083333 0.513444
vt 0.094601 0.500000
vt 0.150360 0.422581
vt 0.130000 0.457846
vt 0.072506 0.500000
vt 0.083333 0.513444
vt 0.000000 0.500000
vt 0.401134 0.426712
vt 1.000000 1.000000
vt 0.945481 1.000000
vt 0.349640 0.422581
vt 0.422581 0.150360
vt 0.750000 0.050721
vt 0.771127 0.500000
vt 0.666658 0.426948
vt 0.250000 0.050721
vt 0.262616 0.054101
vt 0.940926 0.218824
vt 0.981989 0.220103
vt 0.397606 0.125385
vt 0.374584 0.466363
vt 0.307110 0.433977
vt 0.464991 0.125794
vt 0.430012 0.136067
vt 0.466748 0.163221
vt 0.432791 0.188464
vt 0.249911 0.006960
vt 0.251566 0.049360
vt 0.262616 0.013380
vt 0.749185 0.048360
vt 0.750000 0.010000
vt 0.768933 0.055794
vt 0.768326 0.014911
vt 0.547031 0.250196
vt 0.510000 0.250000
vt 0.558061 0.222605
vt 0.517478 0.222090
vt 0.650692 0.425175
vt 0.630000 0.457846
vt 0.618122 0.445968
vt 0.957659 0.241348
vt 0.990000 0.250000
vt 0.940926 0.218824
s 0
f 16/1/1 15/2/1 35/3/1 17/4/1
f 17/4/2 35/5/2 34/6/2 19/7/2
f 19/8/3 34/9/3 38/10/3 21/11/3
f 21/11/4 38/12/4 31/13/4 39/14/4
f 39/14/5 31/15/5 49/16/5 30/17/5
f 30/17/6 49/18/6 9/19/6 10/20/6
f 10/20/7 9/21/7 23/22/7 50/23/7
f 50/23/8 23/24/8 25/25/8 12/26/8
f 12/26/9 25/27/9 41/28/9 42/29/9
f 42/29/10 41/30/10 43/31/10 29/32/10
f 37/33/11 159/34/11 158/35/11 108/36/11 45/37/11
f 54/38/12 53/39/12 15/40/12 16/1/12
f 28/41/13 120/42/13 106/43/13 13/44/13
f 1/45/14 187/46/14 183/47/14 104/48/14
f 52/49/15 119/50/15 120/42/15 28/51/15
f 7/52/16 180/53/16 182/54/16 149/54/16 147/52/16
f 26/55/17 117/56/17 119/50/17 52/57/17
f 131/58/18 181/59/18 177/60/18 118/61/18
f 24/62/19 116/63/19 117/56/19 26/55/19
f 113/64/20 40/65/20 11/66/20 115/67/20
f 8/68/21 114/69/21 116/63/21 24/62/21
f 127/70/22 174/71/22 176/72/22 143/72/22 141/70/22
f 32/73/23 112/74/23 165/75/23 167/76/23 48/77/23
f 128/78/18 175/79/18 171/80/18 113/81/18
f 168/82/24 129/83/24 114/84/24 166/85/24
f 110/86/25 20/87/25 47/88/25 111/89/25
f 55/90/26 109/91/26 160/92/26 162/93/26 33/94/26
f 163/95/27 6/96/27 112/97/27 161/98/27
f 192/99/28 194/100/28 18/101/28 20/87/28 110/86/28
f 45/37/29 108/36/29 109/91/29 55/90/29
f 105/102/30 36/103/30 46/104/30 107/105/30
f 131/58/4 186/106/4 188/107/4 153/107/4 151/58/4
f 29/32/22 43/108/22 53/109/22 54/110/22
f 104/111/31 14/112/31 36/103/31 105/102/31
f 45/37/32 55/90/32 99/90/32 79/37/32
f 24/62/33 26/55/33 68/55/33 67/62/33
f 53/109/34 43/108/34 75/108/34 94/109/34
f 32/73/35 48/77/35 86/77/35 85/73/35
f 40/113/18 22/114/18 64/114/18 63/113/18
f 15/40/18 53/39/18 94/39/18 102/40/18
f 26/55/35 52/57/35 93/57/35 68/55/35
f 47/88/18 20/87/18 59/87/18 84/88/18
f 52/49/35 28/51/35 76/51/35 93/49/35
f 39/14/35 30/17/35 62/17/35 61/14/35
f 13/115/36 37/33/36 103/33/36 95/115/36
f 12/26/35 42/29/35 73/29/35 72/26/35
f 33/94/35 32/73/35 85/73/35 83/94/35
f 51/116/18 27/117/18 71/117/18 92/116/18
f 36/103/37 14/112/37 97/112/37 100/103/37
f 43/31/38 41/30/38 69/30/38 75/31/38
f 19/8/35 21/11/35 60/11/35 82/8/35
f 21/11/35 39/14/35 61/14/35 60/11/35
f 31/13/18 38/12/18 56/12/18 58/13/18
f 54/38/39 16/1/39 101/1/39 96/38/39
f 44/118/18 51/116/18 92/116/18 77/118/18
f 20/87/18 18/101/18 80/101/18 59/87/18
f 49/16/18 31/15/18 58/15/18 87/16/18
f 50/23/35 12/26/35 72/26/35 90/23/35
f 74/32/40 96/110/40 97/119/40 77/120/40
f 76/41/41 95/44/41 94/109/41 75/108/41
f 73/29/42 74/32/42 77/118/42 92/116/42
f 93/49/43 76/51/43 75/31/43 69/30/43
f 72/26/44 73/29/44 92/116/44 71/117/44
f 68/55/45 93/57/45 69/28/45 70/27/45
f 90/23/46 72/26/46 71/117/46 91/121/46
f 67/62/47 68/55/47 70/25/47 88/24/47
f 89/20/48 90/23/48 91/66/48 63/65/48
f 66/68/49 67/62/49 88/22/49 65/21/49
f 62/17/50 89/20/50 63/113/50 64/114/50
f 86/77/51 66/68/51 65/19/51 87/18/51
f 61/14/52 62/17/52 64/114/52 84/122/52
f 85/73/53 86/77/53 87/16/53 58/15/53
f 60/11/54 61/14/54 84/88/54 59/87/54
f 83/94/55 85/73/55 58/13/55 56/12/55
f 82/8/56 60/11/56 59/87/56 80/101/56
f 99/90/57 83/94/57 56/10/57 57/9/57
f 98/4/58 82/7/58 80/101/58 81/123/58
f 79/37/59 99/90/59 57/6/59 78/5/59
f 101/1/60 98/4/60 81/104/60 100/103/60
f 103/33/61 79/37/61 78/3/61 102/2/61
f 96/38/62 101/1/62 100/103/62 97/112/62
f 95/115/63 103/33/63 102/40/63 94/39/63
f 9/19/18 49/18/18 87/18/18 65/19/18
f 25/25/18 23/24/18 88/24/18 70/25/18
f 41/28/64 25/27/64 70/27/64 69/28/64
f 34/6/18 35/5/18 78/5/18 57/6/18
f 48/77/35 8/68/35 66/68/35 86/77/35
f 11/66/18 40/65/18 63/65/18 91/66/18
f 29/32/65 54/110/65 96/110/65 74/32/65
f 8/68/66 24/62/66 67/62/66 66/68/66
f 42/29/35 29/32/35 74/32/35 73/29/35
f 17/4/35 19/7/35 82/7/35 98/4/35
f 16/1/35 17/4/35 98/4/35 101/1/35
f 23/22/18 9/21/18 65/21/18 88/22/18
f 30/17/35 10/20/35 89/20/35 62/17/35
f 55/90/67 33/94/67 83/94/67 99/90/67
f 46/104/68 36/103/68 100/103/68 81/104/68
f 10/20/35 50/23/35 90/23/35 89/20/35
f 14/119/18 44/120/18 77/120/18 97/119/18
f 28/41/69 13/44/69 95/44/69 76/41/69
f 37/33/70 45/37/70 79/37/70 103/33/70
f 27/117/18 11/121/18 91/121/18 71/117/18
f 22/114/18 47/122/18 84/122/18 64/114/18
f 18/101/71 46/123/71 81/123/71 80/101/71
f 35/3/18 15/2/18 102/2/18 78/3/18
f 38/10/18 34/9/18 57/9/18 56/10/18
f 3/124/18 1/45/18 104/48/18 105/125/18
f 4/126/7 155/127/7 124/128/7
f 125/129/18 3/124/18 105/125/18 107/130/18
f 2/131/72 156/132/72 157/133/72 106/134/72
f 125/129/73 189/135/73 191/136/73 137/136/73 135/129/73
f 4/126/74 126/137/74 109/138/74 108/139/74
f 189/135/75 125/129/75 107/130/75 193/140/75
f 33/94/76 162/93/76 161/141/76 112/74/76 32/73/76
f 127/70/77 5/142/77 110/143/77 111/144/77
f 140/145/78 164/146/78 126/137/78 138/137/78
f 111/89/79 47/122/79 22/114/79 173/147/79 172/148/79
f 48/77/80 167/76/80 166/149/80 114/69/80 8/68/80
f 171/150/81 173/151/81 22/114/81 40/113/81 113/64/81
f 129/83/82 168/152/82 170/153/82 144/153/82 146/83/82
f 7/52/83 128/78/83 113/81/83 115/154/83
f 129/83/84 130/155/84 116/156/84 114/84/84
f 115/67/85 11/121/85 27/117/85 179/157/85 178/158/85
f 130/155/86 121/159/86 117/160/86 116/156/86
f 177/161/87 179/157/87 27/117/87 51/116/87 118/162/87
f 121/159/88 122/163/88 119/164/88 117/160/88
f 118/162/89 51/116/89 44/118/89 185/165/89 184/166/89
f 122/163/90 123/167/90 120/168/90 119/164/90
f 183/169/91 185/170/91 44/120/91 14/119/91 104/171/91
f 123/167/92 2/131/92 106/134/92 120/168/92
f 155/127/35 4/126/35 108/139/35 158/172/35
f 13/115/93 106/173/93 157/174/93 159/34/93 37/33/93
f 130/155/1 129/83/1 146/83/1 148/155/1
f 1/45/6 3/124/6 133/124/6 132/45/6
f 124/175/94 134/131/94 154/167/94 152/163/94 150/159/94 148/155/94 146/83/94 144/153/94 142/96/94 140/176/94 138/137/94 136/126/94
f 132/45/18 133/124/18 135/129/18 137/136/18 139/142/18 141/70/18 143/72/18 145/78/18 147/52/18 149/54/18 151/58/18 153/107/18
f 5/142/10 127/70/10 141/70/10 139/142/10
f 2/131/5 123/167/5 154/167/5 134/131/5
f 124/128/6 2/131/6 134/131/6
f 182/54/3 181/59/3 131/58/3 151/58/3 149/54/3
f 3/124/7 125/129/7 135/129/7 133/124/7
f 121/159/2 130/155/2 148/155/2 150/159/2
f 176/177/12 175/79/12 128/78/12 145/78/12 143/72/12
f 4/126/7 124/175/7 136/126/7
f 107/105/95 46/123/95 18/101/95 194/100/95 193/178/95
f 122/163/3 121/159/3 150/159/3 152/163/3
f 126/137/96 4/126/96 136/126/96 138/137/96
f 188/107/5 187/179/5 1/45/5 132/45/5 153/107/5
f 170/180/97 169/181/97 6/96/97 142/96/97 144/153/97
f 5/142/98 190/182/98 192/183/98 110/143/98
f 123/167/4 122/163/4 152/163/4 154/167/4
f 128/78/1 7/52/1 147/52/1 145/78/1
f 6/96/99 163/184/99 140/176/99 142/96/99
f 155/127/100 158/172/100 159/185/100 124/128/100
f 124/128/101 159/185/101 157/133/101 156/132/101
f 124/128/6 156/186/6 2/131/6
f 163/95/102 161/98/102 162/187/102 140/188/102
f 140/188/103 162/187/103 160/189/103 164/190/103
f 126/137/104 164/190/104 160/189/104 109/138/104
f 168/82/105 166/85/105 167/191/105 170/192/105
f 170/192/106 167/191/106 165/193/106 169/181/106
f 6/96/35 169/181/35 165/193/35 112/97/35
f 171/80/107 175/79/107 176/194/107 173/195/107
f 173/195/108 176/194/108 174/196/108 172/197/108
f 174/196/109 127/70/109 111/144/109 172/197/109
f 177/60/110 181/59/110 182/198/110 179/199/110
f 179/199/111 182/198/111 180/200/111 178/201/111
f 180/200/112 7/52/112 115/154/112 178/201/112
f 183/47/113 187/46/113 188/202/113 185/203/113
f 185/203/114 188/202/114 186/106/114 184/204/114
f 186/106/115 131/58/115 118/61/115 184/204/115
f 192/183/116 190/182/116 191/205/116 194/206/116
f 194/206/117 191/205/117 189/135/117 193/140/117
f 191/136/9 190/207/9 5/142/9 139/142/9 137/136/9
